<?xml version="1.0" encoding="UTF-8"?>
<svg version="1.1" viewBox="0 0 2000 2000" width="1280" height="1280" xmlns="http://www.w3.org/2000/svg">
<path transform="translate(1243,570)" d="m0 0 52 2 52 5 68 9 26 4 27 6 42 11 35 10 31 11 20 8 20 7 11 6 9 17 5 12v2l16 4 8 4 5 8 9 19 5 4 18 7 5 4 5 10 7 18 13 27 11 26 16 34 8 20 6 14-1 7-6 8-8 12-11 12-11 14-18 18-7 8-12 11-8 7-3 1v2l-14 11-10 9-14 11-12 8-15 11-19 12-21 13-16 9-35 18-33 15-24 10-17 6-20 6-14 5-11 2-6-5-11-14-8-12-4-7-5-1-7 1-8-9-7-13-6-7v-2l-4-2-5-4-4-1 3 3h2l-3 11-6 13-9 16-8 14-10 21-12 21-9 17-9 20-8 16-12 27-15 33-8 22-4 7-5-2-9-7-7-8-10-9-8-7-17-17-8-7-20-20-8-7-11-11-4-1-5 5-9 6-46 22-19 9-28 13-21 10-17 7-18 8-23 10-13 4-5-1-15-9-19-14-19-13-13-10-10-7-14-11-12-11-7-11-8-8-14-10-9-8-1-6v-4l-12-8-11-9-9-6-8-3v11l-2 12-11 20-7 11-8 16-7 11-11 17-6 10-7 11-9 12-12 18-7-3-11-7-12-9-17-11-17-12-22-15-11-9-7-10-4-5-8-7-7-7-11-8-2-1v-2l-3-1 1-9-2-4-4-2-18-11-14-11-3-4 11-19 12-15 16-25 12-20 4-8-16 13-8 7-13 11-9 6-11 9-4 6-8 19-7 20-15 35-13 38-11 29-7 25-6 16-4 1-10-6-14-10-17-11-15-9-14-10-13-8-14-11-5-6-3-6-7-7-11-9-10-7-7-5-1-2-2-14-14-8-13-10-10-7 1-7 12-35 7-22 8-20 11-27 6-16 12-26 8-19 11-23 13-25 9-20 10-18 9-17 5-10 18-30 5-10 9-13 12-20 14-20 9-12 8-13 10-11 5-8 6 1 9 7 17 12 15 11 10 8 15 9 10 9 8 6-1 4-2 4 9 6 5 5 8 9v2l12-3 17-12 17-11 21-12 16-10 15-7 5 2 13 9 9 9 17 12 9 8 9 7 30 23 11 10 4 4 1 9 4 4 10 8 5-1 10-6 13-10 9-6 13-8 13-9 18-11 15-9 16-10 19-10 4-1 8 4 13 11 15 12 13 10 10 8 9 8 11 7 11 9v2l4 2 12 9 2 10 14 11 12 8v2l4 2 7 8 2 9 9 6 10 9 19 14v8l-8 27-8 19-2 6 20-9 14-7 9-3 8-1 2-5 8-14 9-16 10-19 6-9 8-13 9-17 8-11 10-17 12-18 11-15 9-15 13-18 11-16 10-14 9-11 7-11 9-10 9-13 1-6h-34l-6-2-1-2 6-18 6-13-21-3-30-1-1-4 7-19 7-21 6-15 9-24 7-22zm194 201-1 2 4 6 8 7 6 4h2l1 4-1 4 9 9 12 9 3 1v2l5 4 5 8 1 4 5-1 12-8 9-9 11-9 8-8 6-10h-20l-14-3-32-6-31-9z" fill="#FDD011"/>
<path transform="translate(1645,682)" d="m0 0 12 2 8 4 5 8 9 19 5 4 18 7 5 4 5 10 7 18 13 27 11 26 16 34 8 20 6 14-1 7-6 8-8 12-11 12-11 14-18 18-7 8-12 11-8 7-3 1v2l-14 11-10 9-14 11-12 8-15 11-19 12-21 13-16 9-35 18-33 15-24 10-17 6-20 6-14 5-11 2-6-5-11-14-8-12-4-7-5-1-7 1-8-9-7-13-6-7v-2l-4-2-5-5 4-4 15-5 18-5 24-10 13-5 25-11 23-11 17-9 14-7 40-24 16-11 14-10 8-6h2v-2l14-10 10-8 8-7h2l2-4 8-7 16-15 14-15 7-7 9-11 7-7 9-12 7-10 6-8 1-3v-7l-8-17-11-25-6-13-11-24-6-15-5-10-3-9z" fill="#FDC6C6"/>
<path transform="translate(598,900)" d="m0 0h3l1 2-1 9-7 21-12 31-4 6-7 15-16 32-7 13-8 13-6 11-16 13-8 7-13 11-9 6-11 9-4 6-8 19-7 20-15 35-13 38-11 29-7 25-6 16-4 1-10-6-14-10-17-11-15-9-14-10-13-8-14-11-5-6-3-6-7-7-11-9-10-7-7-5-1-2v-10l2 1v2l5 2 14 7 9 6v2l5 2 11 7 14 9h6l8-20 7-24 8-23 10-26 7-18 5-15 16-40 8-19 7-7 19-13 3-1v-2l42-28 20-13 13-8 14-8 8-5 9-5 19-11 16-8 16-7 9-5h4v-2z" fill="#F98E8E"/>
<path transform="translate(857,922)" d="m0 0 3 1-1 5-2 5-2 9-9 22-16 32-3 4-14 22-5 9-11 15-6 9-12 17-10 13-8 11-11 14-12 14-3 5 1 7 2 2v12l-2 12-11 20-7 11-8 16-7 11-11 17-6 10-7 11-9 12-12 18-7-3-11-7-12-9-17-11-17-12-22-15-11-9-7-10-4-5-8-7-7-7-11-8-2-1v-2l-3-1 1-5 2-1 13 7 9 6 14 9 14 11 4 2 5-1 7-12 13-17 7-10 9-15 10-17 6-10 10-18 11-21 10-19 12-25 11-20 7-7 14-9 11-8 20-13 16-10 18-11 21-12 17-10 40-19z" fill="#F98E8E"/>
<path transform="translate(1273,969)" d="m0 0 5 2 8 12 2 5h2l4 6 12 17 8 14 8 11 5 6v2l4 2v2l7 1 3 3h2l-3 11-6 13-9 16-8 14-10 21-12 21-9 17-9 20-8 16-12 27-15 33-8 22-4 7-5-2-9-7-7-8-10-9-8-7-17-17-8-7-17-17 9-18 10-25 20-44 8-16 9-19 14-28 20-38 5-10 7-11 6-12 6-10 5-9z" fill="#F98E8F"/>
<path transform="translate(1655,706)" d="m0 0 6 3v2l11 2 4 1 4 4v2h2l5 12 7 16 11 23 10 22 5 13 8 17 8 18-1 6-9 12-9 10-2 5-3 3h-2l-1 4h-2l-2 4-10 10-1 2h-2l-2 4-3 4h-2l-2 4-4 4h-2l-2 4-6 5-8 10-4 1-2 4-10 8h-2l-2 4-3 1-1 3-6 5h-2v2l-9 6-11 8-3 3-19 13-4 3h-3v2l-10 6h-2v2l-8 5-12 7-9 6-16 8h-3v2l-16 8-12 5-16 8-18 8-9 3-10 4-29 10-10 4-14 4-9 2h-5l-8-9-7-13-6-7v-2l-4-2-5-5 4-4 15-5 18-5 24-10 13-5 25-11 23-11 17-9 14-7 40-24 16-11 14-10 8-6h2v-2l14-10 10-8 8-7h2l2-4 8-7 16-15 14-15 7-7 9-11 7-7 9-12 7-10 6-8 1-3v-7l-8-17-11-25-6-13-11-24-4-9z" fill="#F98E8E"/>
<path transform="translate(1047,1120)" d="m0 0 4 1v2l3 1 7 8 10 10 8 6 6 7 3 2 2 4 17 16 12 11 5 5-4 5-13 8-44 21-19 9-28 13-21 10-17 7-18 8-23 10-13 4-5-1-15-9-19-14-19-13-13-10-10-7-14-11-12-11-7-11-8-8-14-10-9-8-1-6h4l10 8 14 10 12 7 11 9 10 6 8 1 12-4 24-10 16-7 42-19 15-7 20-9 17-9 21-10 15-7 13-6z" fill="#F98E8E"/>
<path transform="translate(1356,696)" d="m0 0 15 1 4 2 27 6 17 5 15 4 14 4 12 3 16 6 30 10 12 5 11 4 16 7 19 10 1 5-5 7-4 3-4 1-4 6-5 6h-21l-14-3-32-6-31-9-8-1 3 6 8 7 8 5 2 4-1 4 8 8 12 9 3 2v2l4 2 6 8 1 6 3 1-5 2-18 13-16 9-17 11-17 10-19 10-14 7-6 1-2 5-26 12-13 5-13 6-25 9-8 1-1-2 3-7 10-14 8-15 8-11 16-24 9-13 8-11 8-12 10-14 11-14 9-13 8-9 7-10 5-6 5-1-3-10-7-7-4-6-3-2-7-2-11-10-25-20v-2l-3-1-1-3z" fill="#FDC6C6"/>
<path transform="translate(571,973)" d="m0 0h3l-1 7-8 15-7 16-10 18-8 13-6 11-16 13-8 7-13 11-9 6-11 9-4 6-8 19-7 20-15 35-13 38-11 29-7 25-6 16-4 1-10-6-14-10-17-11-15-9-14-10-13-8-14-11-5-6-3-6-7-7-11-9 2-1 7 4 4 3 5 2 5 5 12 9 10 7 16 10 13 8 10 5h4l1-5 9-25 9-27 3-11 5-11 6-16 7-17 6-17 7-19 5-13 5-10 3-7 5-8 10-9 5-3h2v-2l12-8 10-6 11-8h2v-2l10-6 11-6 5-3 3-3h2v-2l7-4 18-11 9-5 11-8z" fill="#FDC6C6"/>
<path transform="translate(821 1e3)" d="m0 0 4 1-2 5-9 13-4 8-13 18-6 9-12 17-10 13-8 11-11 14-12 14-3 5 1 7 2 2v12l-2 12-11 20-7 11-8 16-7 11-11 17-6 10-7 11-9 12-12 18-7-3-11-7-12-9-17-11-17-12-22-15-11-9-7-10-4-5-8-7-6-7 5 2 3 2v2l6 2 9 7 1 4 4 2 1 3 5 1 6 5 4 2 6 4 3 3 12 7 6 3 5 3v2h7l4-5h2l2-5 8-10 11-18 4-5 13-22 6-11 8-12 8-15 6-12 8-14 6-11 10-23 3-5 4-10 5-5 13-11 11-8 21-14 8-5 15-10 12-6 8-5 1-2z" fill="#FDC6C6"/>
<path transform="translate(1306,1020)" d="m0 0h5l10 15 6 7v2l4 2v2l7 1 3 3h2l-3 11-6 13-9 16-8 14-10 21-12 21-9 17-9 20-8 16-12 27-15 33-8 22-4 7-5-2-9-7-7-8-10-9-8-7-14-14h3l5 5 3 2 2-1 4-8 4-6 7-16 6-12 5-15 13-27 6-12 8-19 9-17 15-30 3-4 6-12 8-13 7-15 6-9 7-12z" fill="#FDC6C6"/>
<path transform="translate(1e3 879)" d="m0 0 6 1h3l16 11 3 2v2l4 2 7 8 2 9 9 6 10 9 19 14v8l-8 27-8 19-1 7-14 5-15 7-20 9-5 3-12 4-1 2-13 5-28 12-19 7-16 5h-2l-1-4 10-14 9-16 8-13 13-24 11-23 8-19 9-25 8-24 4-14 3-7z" fill="#F98E8E"/>
<path transform="translate(1083,1161)" d="m0 0 6 1 5 3 12 11 13 12 5 5-4 5-13 8-44 21-19 9-28 13-21 10-17 7-18 8-23 10-13 4-5-1-15-9-19-14-19-13-13-10-10-7-14-11-12-11-7-11-4-5 4 1 6 8 5 5 6 3 6 5 7 4 3 3 5 3v2l4 2 7 4 9 5 7 4v2h4v2l9-1 11-4h5v-2l23-8 15-7 9-4 15-7 9-4 10-4 7-4 19-9 14-7 18-8 10-5h3v-2l7-3 11-6z" fill="#FDC6C6"/>
<path transform="translate(1416,761)" d="m0 0 4 1 2 5 3 1 3 6 8 6 9 6 4 4v2l4 2-1 6-12 13-7 11-8 9-13 18-7 10-10 15-3 3-4 7-3 4-2 7 1 2h-2l-2 5-26 12-13 5-13 6-25 9-8 1-1-2 3-7 10-14 8-15 8-11 16-24 9-13 8-11 8-12 10-14 11-14 9-13 8-9 7-10 5-6z" fill="#FA8E8F"/>
<path transform="translate(1356,696)" d="m0 0 15 1 4 2 27 6 17 5 15 4 14 4 12 3 16 6 30 10 12 5 11 4 16 7 19 10 1 5-5 7-4 3-4 1-2 2-4-4-16-7-25-7-35-10-24-7-16-4-16-3-9-1-3-2-7-2-11-10-25-20v-2l-3-1-1-3z" fill="#FA8E8F"/>
<path transform="translate(1043,911)" d="m0 0 5 5 6 4 10 9 19 14v8l-8 27-8 19-1 7-14 5-15 7-20 9-5 3-7 2-2-4 1-4h2l-1-3 3-5 4-11 2-3 3-10 5-11 3-10 4-8 7-22 2-7 2-11z" fill="#FDC6C6"/>
<path transform="translate(1456,798)" d="m0 0 7 6 14 11 3 2v2l4 2 6 8 1 6 3 1-5 2-18 13-16 9-17 11-17 10-19 10-11 6h-4v-7l10-13 6-10 7-9 10-15 3-4h2l2-4 13-17 8-11z" fill="#FDC6C6"/>
<path transform="translate(1682,722)" d="m0 0 3 4 5 14 8 16 8 18 8 16 6 16 8 17 8 18-1 6-9 12-9 10-2 5-3 3h-2l-1 4h-2l-2 4-10 10-1 2h-2l-2 4-3 4h-2l-2 4-4 4h-2l-2 4-6 5-8 10-4 1-2 4-10 8h-2l-2 4-3 1-1 3-6 5h-2v2l-9 6-11 8-3 3-19 13-4 3h-3v2l-10 6h-2v2l-8 5-12 7-9 6-16 8h-3v2l-16 8-12 5-16 8-18 8-9 3-10 4-29 10-10 4-14 4-9 2h-5l-8-9-7-13-6-7v-2l-4-2-5-5h9l7 4 7 11 4 7 2 1 1 6h2v2l5 2h7l17-5 19-7 8-3 13-5 8-3 13-5 11-5 16-8 13-6h3v-2l5-2h3v-2l16-8 4-1v-2l13-7h3v-2l10-6h2v-2l9-6h3l1-3 9-5h2v-2l10-6h2v-2l12-9 7-5 1-2 7-4 4-2 1-3 6-5h2v-2h2v-2h2l1-3 9-6 5-6h2l2-4 6-7 5-4h2v-2h2v-2l4-4h2l1-4h2l2-4 5-5 6-7 5-5 3-1 5-10 2-1 3-5 4-5h2l1-4 2-1 3-5 1-7v-4l-9-21-4-6v-2h-2l-3-12-6-15-6-13-7-15-10-25z" fill="#FFA6AA"/>
<path transform="translate(573,968)" d="m0 0 3 1-1 6-1-2-10 4-10 8-12 6-10 7-7 4-4 1v2l-4 1-1 3-13 8-8 4-5 2v2l-13 9-10 6-10 7h-2v2l-9 6-9 8-5 9-5 13-5 12-5 13-7 20-5 12-8 20-9 24-6 20-5 13-8 23-2 5-5 1-17-10-16-10-10-7-5-3-12-9-5-4v-2l-7-2-6-5-8-3-14-10-1-2v-10l2 1v2l5 2 3 1 5 5 8 5 8 7 6 3 6 7v2h2l3 4v2l5 2 5 3v2l5 2 15 10 4 2v2l9 3 8 4 6-1 6-20 4-10 4-9 4-13 2-7 8-22 3-9h2l1-6 7-17 6-18 8-22 4-9 6-14 7-9 14-11 10-6 4-3 5-1v-2l11-7 13-10 12-6 9-6 3-1v-2l16-10 12-8 8-4 6-4h2v-2z" fill="#FFA6AA"/>
<path transform="translate(517,796)" d="m0 0h12l5 5 4 5 5 5v2h2l-2 4-14 10-16 11-18 13-10 9-4 3-5-1 4-7 9-14 5-9 15-24 6-10z" fill="#F98F8F"/>
<path transform="translate(1258,681)" d="m0 0h13l7 2v2l26 2 4 4-4 7-7 5-1 2h-2v2h-2l-2 4-1 5-2-1h-34l-6-2-1-2 6-18z" fill="#FEA5A9"/>
<path transform="translate(1447,593)" d="m0 0h9l47 12 42 12 31 11 20 8 20 7 11 6 9 17 5 12v2l2 1v5l-4-4-6-9-1 3-4 1-5-9-3-10h-2l-2-4-5-3-2-3-18-4-4-3-7-3-4-3-13-3-6-4-12-5-7-2-9-1-10-2-11-3-13-4-12-5-5-2-8-1-4-2v-2l-12-2-3-1h-5z" fill="#FEDD20"/>
<path transform="translate(824,998)" d="m0 0 3 1-1 3-10 1-2 4-15 8-18 11-3 3-6 3-21 14-13 10-14 11-4 8-3 8-7 15-8 16-10 18-8 16-6 11-9 14-5 9-8 13-6 11-4 5-11 17-7 9-3 5-5 5-5 1-3-1v-2l-5-2-6-3-14-8-1-3-5-2-4-3-6-4-2-2-4-1-6-7v-2l-4-2-3-2v-2l-6-2-2-1v-2l-5-2-8-5-9-6v-2l-3-1 1-5 2-1 8 4 5 7 1 2 3 1v2l3 2 5 1 4 2v2h4v2l4 2 7 9 7 6 6 4 16 11 2 1v2l9 3v2l4 1v2l5 1 4-1 8-10 7-10 3-6 9-12 8-13 3-5 7-12 5-9 6-9 13-26 6-9 3-6 10-19 8-19 5-10 4-6 15-11 1-2 7-4 5-4 7-4 12-8 13-8 5-4 22-12 9-6z" fill="#FEA6AA"/>
<path transform="translate(1356,696)" d="m0 0 15 1 4 2 27 6 17 5 15 4 14 4 12 3 16 6 30 10 12 5 11 4 16 7 19 10 1 5-5 7-4 3-3-1 2-4 2-2v-6l-6-2-11-6-17-9-19-7-13-5-7-2-16-6-8-2-18-6-11-2-13-3-4-2-13-2-16-3-6-3-9-2 2 6 5 5 5 3 7 8 6 4v2h2v2h2v2l-5-2-10-9-25-20v-2l-3-1-1-3z" fill="#F39D81"/>
<path transform="translate(1082,1159)" d="m0 0 7 1 2 3-8-1-12 4-11 7h-4v2l-21 10-10 4-25 12-8 4-11 6-20 8-13 6-16 8-16 6-9 3h-3v2l-11 3-8 3-6-1v-2h-4v-2l-4-1-4-2-11-7-8-5-2-3-5-3-5-4-7-4-5-4-7-4-6-8-1-3-6-2-13-10-8-7-5-5 1-5 5 2 8 7 14 10 3 2 1 3 4 3 5 9 4 4 8 4 4 1 3 3 10 8 5 3v2l5 2 5 3 2 2 5 2 6 4 5 3h7l10-3 9-3 8-4 16-5 8-4 13-6 12-5 9-4 10-5 17-8 19-10 15-6 4-3 13-6 26-13z" fill="#FEA6AA"/>
<path transform="translate(591,903)" d="m0 0 4 1-5 1v2l-19 9-8 5h-5v2l-4 2h-3v2l-7 3-2 2-5 1v2l-7 2v2l-5 2h-3v2l-7 2v2l-11 6h-2v2l-12 6-1 2-11 6-6 4h-2v2l-6 2v2l-9 6h-2v2l-9 5-7 5h-2v2l-5 3-10 7h-2v2l-5 3-11 8-4 5-4 8-3 8-3 9-2 3-3 9-8 20-5 11-3 10-3 8-3 9-2 5h-2v7l-2 4h-2l-1 8-2 2-3 10-4 11-2 1 1-5 8-23 10-26 7-18 5-15 16-40 8-19 7-7 19-13 3-1v-2l42-28 20-13 13-8 14-8 8-5 9-5 19-11 16-8 16-7z" fill="#F39D81"/>
<path transform="translate(1416,761)" d="m0 0 2 1-1 3h-2v2h-2v2l-4 4-6 8h-2l-1 4-3 4h-2v2h-2l-2 5-6 9h-2l-1 4h-2l-2 4-9 12-4 8h-2v2h-2l-1 5-3 1-2 5-10 14-2 3h-2l-1 5-6 8-1 3-3 2-3 6h-2l-1 4-5 9-5 7-5 10-3 3-4 7-1 4v2l9-4 15-5 12-5 22-9 16-8 2-2h5l-2 4-26 12-13 5-13 6-25 9-8 1-1-2 3-7 10-14 8-15 8-11 16-24 9-13 8-11 8-12 10-14 11-14 9-13 8-9 7-10 5-6z" fill="#F39D81"/>
<path transform="translate(922,801)" d="m0 0 4 2 12 9 13 10 10 9 10 7 11 8 6 5v2l4 2 12 9-1 6-6 2-5-8-7-3-9-8-10-10-9-6-4-4-7-3-5-7-1-4-7-3-6-4-4-7v-2l-2-1z" fill="#FEDD20"/>
<path transform="translate(1307,1016)" d="m0 0 4 4-6 2-9 15-4 6-8 16-12 21-3 6-5 8-7 16-6 10-8 16-8 20-10 19-8 17-6 17-8 16-5 12-6 9-2 4-3 1-3-4 5-1 7-12 9-21 5-11 3-10 16-32 5-12 4-9 3-8h2l2-7 12-22 5-11 6-11 9-17h2l2-6 4-10h2l2-7 3-5h2l2-5 4-8h2l2-5z" fill="#FFA6AA"/>
<path transform="translate(261,1171)" d="m0 0 2 1v2l5 2 3 1 5 5 8 5 8 7 6 3 6 7v2h2l3 4v2l5 2 5 3v2l5 2 15 10 4 2v2l9 3 8 4 6-1 6-20 4-10 4-8 2-1-1 6-7 20-7 19-5 1-17-10-16-10-10-7-5-3-12-9-5-4v-2l-7-2-6-5-8-3-14-10-1-2z" fill="#FEA5A9"/>
<path transform="translate(260,1035)" d="m0 0h1v10l-3 1v7l-1 2h-2l3 3-1 5-6 10-2 9-3 6 1 5-4 3-1 3v8h-3l-2 10-3 3-3 12-4 7v2l1 2 6 3 3 3v2l-5-2-10-7 1-7 12-35 7-22 8-20 9-22z" fill="#FEDD21"/>
<path transform="translate(1556,782)" d="m0 0 1 3-4 5-6 2v2l-3 1-4 9h-2l-2 4-5 5h-2l-1 3-5 2-1 3-8 5-3 1-2 4h-3v2h-6l-1 4-8 5-3 5-4 1v2l-8 4-4 5-10 6-11 7-13 7-6 4h-3v2l-9 5-8 3-6 3-5 3-6 3-3-1 8-5 15-7 8-4 21-13 24-16 17-13 8-6 1-3 14-9 9-9 11-9 7-7 8-7 10-8z" fill="#FEDD22"/>
<path transform="translate(1142,935)" d="m0 0h2l-4 16-6 9-3 6v2l-1 4-3 2-1-3-2 1-1 10h-2v2h-3v2h-2l-1 2h-5l-5 3-7 2-6 4h-3l-1 3h-3v2l-13 5-11 5-18 8-13 6-5 2-4-1 12-6 11-5 13-5 10-7 4-2 3-3 16-8 15-6 11-2 2-5 8-14 9-16z" fill="#FEDC22"/>
<path transform="translate(512,803)" d="m0 0 1 4-6 10-4 6h-2l-1 6-5 9-1 5h4l1-2 9-5 10-7 8-7 1-2h2l-1-3 3-4h5l2-3 5 1v2h2l-2 4-14 10-16 11-18 13-10 9-4 3-5-1 4-7 9-14 5-9 15-24z" fill="#F39D80"/>
<path transform="translate(1419,759)" d="m0 0 7 6 7 8 5 2 7 8 11 7 2 4-3 6-11 13-6 9-8 10-5 7h-2l-2 4-8 12-8 11-6 9-8 11-3 4v8h-5l-1-2 4-9 4-5 2-4h2l2-5 8-12 7-10 14-19 4-5h2l2-4 6-10 12-13 1-6-5-5-6-5-6-4-8-6-3-6-4-4z" fill="#FEA6AA"/>
<path transform="translate(1645,682)" d="m0 0 12 2 8 4 5 8 9 19 2 2-1 3-5-6-7-1-7-2v-2l-5-2-3-3-5-10-3-9z" fill="#FEA8AB"/>
<path transform="translate(1011,879)" d="m0 0 11 7 10 7v2l4 2 7 8 1 6-4 13-2 10-6 21-5 13-3 7-5 13-3 7-2 7-4 8-3 8-1 4h-2v6l1 2-4 1-1-1v-6l6-10 5-15 3-8 3-9 4-9 8-22 3-8 6-21 1-12-4-6v-2l-5-2-4-4v-2h-3v-2l-3-1v-2l-3-1-7-7z" fill="#FFA6AA"/>
<path transform="translate(1082,1159)" d="m0 0 7 1 2 3-8-1-12 4-11 7h-4v2l-21 10-10 4-25 12-8 4-11 6-20 8-13 6-16 8-16 6-9 3h-3v2l-9 1 4-4 11-3 5-3 16-5 8-4 13-6 12-5 9-4 10-5 17-8 19-10 15-6 4-3 13-6 26-13z" fill="#FFA6AA"/>
<path transform="translate(1523,965)" d="m0 0 2 1-10 7-5 4h-3v2l-9 4-7 5-8 3-4 1-1 3-9 3-10 7-15 6-6 4-7 2-8 4-9 3-12 5-10 4-14 7-16 5h-13l3-2 29-9 22-9 13-5 25-11 23-11 17-9 14-7 20-12z" fill="#F39C81"/>
<path transform="translate(350,850)" d="m0 0v3l-1 6h-2v3h-2v5h-2v3h-2v5h-2v3l-3 2-1 6-6 8-4 5-6 15 1 2-1 3h-2v-3l-5 12-2 4-1 5-7 7h2l1 3h-2v-2l-2 1v5h-2l-2 6v2h-2v2h2l-1 5-2 5-3 1-1-1-2 5h-2l-1 2 1-5 5-12 11-22 9-17 9-20 10-18 9-17 5-10 3-5z" fill="#FEDC1F"/>
<path transform="translate(1273,969)" d="m0 0 5 2 8 12 2 5h2l4 6 12 17 2 5-3-1-7-9-4-6-9-13-9-15-3-1-2 6-4 7h-2l-1 5-1 2h-2l-1 6-1 2h-2l-1 4-5 8-7 12-1 3h-2l-1 7-1 2h-2l-1 4-5 11h-2l-1 4-1 3h-2l-1 5-4 8-1 3h-2l-1 5-4 9-1 2h-2l-1 5-2 3-2 6-1 2h-2l3-9 15-30 20-38 5-10 7-11 6-12 6-10 5-9z" fill="#F39D81"/>
<path transform="translate(1290,718)" d="m0 0 1 4-2 4-1 6h-2v3l-7 6h-2v2l-7 5-3 2v3l-3 6-4 7-2 1-2 3-5 5-4 1v5l-3 6h-2l-1 3-7 3 2-4 15-22 8-9 7-11 9-11 8-10 4-7z" fill="#FEDC22"/>
<path transform="translate(1403,735)" d="m0 0 14 1 24 5 18 5 29 9 19 5 14 3 8 3 15 6 6 4 1 5-5-4-16-7-25-7-35-10-24-7-16-4-16-3-9-1-2-1z" fill="#FFA6AA"/>
<path transform="translate(964,983)" d="m0 0h1l-1 7-5 10-8 15h-2l-1 6-6 9-7 13h-2l-2 5-5 7v4l15-7 10-2 40-16 7-4 1 4-13 5-28 12-19 7-16 5h-2l-1-4 10-14 9-16 8-13 13-24z" fill="#F39D81"/>
<path transform="translate(1239,584)" d="m0 0 2 1v7l-2 9-1 9-1 1-1 9-6 8-2 3h-4l-6 13-1 8h-3l2-9 9-24 7-18 5-15z" fill="#FEDD20"/>
<path transform="translate(846,928)" d="m0 0h8l1 4h-2l-1 5-4 3h-3l-1 3-5 3-8 4v2l-3 3-7 2-2-5 3-6 5-2v-2l6-3 9-7z" fill="#FEA5A9"/>
<path transform="translate(1342,1049)" d="m0 0h9l7 4 7 11 4 7 2 1 1 6h2v2l5 2 3 3-5 2h-5l-8-9-7-13-6-7v-2l-4-2z" fill="#FEAAAD"/>
<path transform="translate(1494,836)" d="m0 0m-1 1m-1 1v3l-4 6-4 1v2l-8 4-4 5-10 6-11 7-13 7-6 4h-3v2l-9 5-8 3-6 3-5 3-6 3-3-1 8-5 15-7 8-4 21-13 24-16 17-13z" fill="#FFDF22"/>
<path transform="translate(857,922)" d="m0 0 3 1-1 5-2 5-2 9-9 22-16 32-2 1-1-3 3-7 2-4 2-3h2l1-8 3-1 1-8 6-12v-9l4-2 2-8h2l-1-4h-5l5-4z" fill="#F39D81"/>
<path transform="translate(844,812)" d="m0 0h3v2l-2 2-7 3-6 3-1 2h-5l5-4zm-20 12 3 1-2 1v3l-5 1-1 2h-3v2l-6 5h-3v2l-6 1-1 3-5 2-3 5-8 7-5 5-7 1-2-2 9-8 12-9 9-6 13-8z" fill="#FEDD23"/>
<path transform="translate(530,1180)" d="m0 0 5 2 9 6 14 9 14 11 4 2 5-1 7-12 8-10 1 2-8 13-6 11-5 2-9-4-2-1-2-4-8-7-6-1v-2l-4-1-6-1v-2l-3-1 1-2h-5v-2l-2-2v-2z" fill="#F39D81"/>
<path transform="translate(480,753)" d="m0 0 6 2 10 7 8 5-1 5-4 1v2l-7 1-2-3v-3l-4-3-4-1-3-9z" fill="#FEDE21"/>
<path transform="translate(598,900)" d="m0 0h3l1 2-1 9-7 21-12 31-4 6h-1v-6l4-9 2-3 2-8 3-7 3-10-1-5 6-7 2-5 1-5-4-1v-2z" fill="#F39D81"/>
<path transform="translate(746,858)" d="m0 0 6 1 7 4v6l-12 10-6 1 1-8 3-13z" fill="#F98F8D"/>
<path transform="translate(662,775)" d="m0 0 8 4 16 12 12 10 4 6-8 1-5-5-8-7-4-8-3-1-4-1-4-3-3-5z" fill="#FEDD20"/>
<path transform="translate(607,777)" d="m0 0 3 1-1 5-11 3-3 1-2 2-5 1-1 2-5 3-1 2-5 1-1 2-4 2v3h-2v2l-3 1-4 4-5 1-1 3-7 2-4-1 14-10 30-20z" fill="#FEDD21"/>
<path transform="translate(382,797)" d="m0 0 2 2-8 14-5 8-3 3-5 10-2 1-1 6-6 7-2 2-2-1 2-5 10-17 5-10 9-13 3-5z" fill="#FEDC28"/>
<path transform="translate(1011,879)" d="m0 0 11 7 10 7v2l4 2 7 8 1 6-3 10h-2v-11l-4-6v-2l-5-2-4-4v-2h-3v-2l-3-1v-2l-3-1-7-7z" fill="#FEA9AC"/>
<path transform="translate(350,850)" d="m0 0v3l-1 6h-2v3h-2v5h-2v3h-2v5h-2v3l-3 2-1 6-6 8-4 5-3 7-4 1 8-16 9-16 8-16 4-7z" fill="#FEDB23"/>
<path transform="translate(588,909)" d="m0 0 5 1-1 5-4 1-1 3-13 9-6 3-3-1 1-5 5-5h2l1-2 8-2 2-4z" fill="#FFA6AA"/>
<path transform="translate(284,979)" d="m0 0 2 1-1 8-1 3h-2l-1 4-3 3-1 5-3 1-1 11h-2l-2 4-1 4 2 1-1 6-3 2h-4l-1 2 2-9 5-12 12-27z" fill="#FEDC22"/>
<path transform="translate(889,1193)" d="m0 0 3 1-14 7h-3v2h-2v2l-13 6-9 3h-12l-6-5-7-7 5 2 8 5 8 1 12-4 24-10z" fill="#F39D81"/>
<path transform="translate(1290,718)" d="m0 0 1 4-2 4-1 6h-2v3l-7 6h-2v2l-7 5-5 1 6-8 9-11 7-11z" fill="#FEDC1F"/>
<path transform="translate(573,987)" d="m0 0 1 3-12 27-3 7-4 7-2 3h-2l-1 3-3 3-6 14-5 5-6 4 2-4 6-7 10-18 6-8 6-11 7-17z" fill="#FFDF22"/>
<path transform="translate(1142,935)" d="m0 0h2l-4 16-6 9-3 6v2l-1 4-3 2-1-3h-3l2-5 10-18z" fill="#FEDC20"/>
<path transform="translate(725,997)" d="m0 0 1 2-11 8-5 2v2l-10 6h-2v2h-3v2l-5 4-3 6h-2l-1 6-5 8-4 9h-2l-1 5-5 11h-2l3-9 10-19 9-17 7-7 14-9 11-8z" fill="#F39D81"/>
<path transform="translate(1047,1120)" d="m0 0 4 1v2l3 1 7 8 10 10 8 6 6 7 3 2v2l-7-2-4-5-9-9v-2l-4-1-5-5v-2h-2v-2h-2v-2l-5-1-1-3-3-3z" fill="#F39D81"/>
<path transform="translate(405,761)" d="m0 0 3 1-2 5h-2l-2 4-1 3-5 3-1 6-4 6-5 6-4 1 2-5 10-16 9-12z" fill="#FEDC20"/>
<path transform="translate(1032,1127)" d="m0 0 2 1-4 1v2l-6 2v2l-9 5-12 5h-4l-1 2-10 2 5-4 21-10 15-7z" fill="#F39D81"/>
<path transform="translate(844,812)" d="m0 0h3v2l-2 2-7 3-6 3-1 2h-5l5-4zm-20 12 3 1-2 1v3l-5 1-1 2h-3v2l-6 5h-3v2l-6 1-1 3-4-1 4-4 13-8z" fill="#FEDB1E"/>
<path transform="translate(779,1168)" d="m0 0 5 2 8 7 11 8-3 1v-2l-5-1-1 2-6-2-9-8-1-6z" fill="#FA9B98"/>
<path transform="translate(340,1171)" d="m0 0h1v8l-3 7-2 9-4 9-4 8-1 1h-6l-5-2v-2l-5-2-6-7 5 2 11 7h6l8-20z" fill="#F39D81"/>
<path transform="translate(1586,921)" d="m0 0h2v2l-9 6-5 6-6 3-4 3h-2l-1 3-3 3-10 5-13 9-6 3-2-1 24-16 14-10 8-6h2v-2z" fill="#F39D81"/>
<path transform="translate(1254,705)" d="m0 0 3 1 2 3 18 3v1l-10 2h-14l-5-3 1-6 1 2z" fill="#FA9394"/>
<path transform="translate(764,1147)" d="m0 0 8 6 5 3 1 2h2l2 4-1 5-11-7-7-6z" fill="#FEDD21"/>
<path transform="translate(1166,897)" d="m0 0 3 1-5 7 1 2-2 4h-2l-1 4-4 3-4 5-1 5-3 5-3-1 1-4 8-13 6-10 3-6z" fill="#FEDB27"/>
<path transform="translate(453,733)" d="m0 0 7 3 13 9 4 3-1 5-8-2-4-5v-3l-4-2-4-4-3-2z" fill="#FEDD1F"/>
<path transform="translate(707,809)" d="m0 0 11 7 12 10-3 1-2 3v-2l-3-1-3-5-8-3-4-4-2-5z" fill="#FEDE20"/>
<path transform="translate(742,1123)" d="m0 0v3l-1 1v5l8 7 3 3 8 6 2 4-4-2-12-8-5-2-4-7 1-6z" fill="#FEDC23"/>
<path transform="translate(530,1180)" d="m0 0 5 2 9 6 11 7v3h-4v-2l-4-1-6-1v-2l-3-1 1-2h-5v-2l-2-2v-2z" fill="#F8918B"/>
<path transform="translate(1292,687)" d="m0 0h12l4 4-4 7-7 5-1 2-2-1 5-9v-5l-7-2z" fill="#F39D81"/>
<path transform="translate(753,861)" d="m0 0 6 2v6l-12 10-6 1 1-8 2-9h1v12l5-2 4-3v-7z" fill="#F39D81"/>
<path transform="translate(1067 1e3)" d="m0 0m-1 1m-1 1m-2 1h2l1 3-7 3-12 5-17 8-5 2-4-1 12-6 11-5 13-5z" fill="#FFDF22"/>
<path transform="translate(519,780)" d="m0 0 5 3-1 4-4 2-1 4-3 1-2 5-6 8-1-3 4-8h3l2-8h2l1-7z" fill="#FEDA24"/>
<path transform="translate(284,979)" d="m0 0 2 1-1 8-1 3h-2l-1 4-3 3-1 5-3 1-2 5-1-2 9-21z" fill="#FEDC1F"/>
<path transform="translate(730,827)" d="m0 0 4 2 10 9 4 4v12l-4-5-1-7-1-3-5-2-7-8z" fill="#FDD626"/>
<path transform="translate(1260,681)" d="m0 0h11l7 2v2l14 1v1h-19l-10-2v-2l-3-1z" fill="#F8908C"/>
<path transform="translate(607,777)" d="m0 0 3 1-1 5-11 3-3 1-2 2-5 1-1 2-4-1 13-8z" fill="#FEDC1F"/>
<path transform="translate(1684,821)" d="m0 0 1 3-8 11-9 10-1 2h-2v2h-2l-1 4h-2l-2 4-7 7-2-1 7-7 9-11 7-7 9-12z" fill="#F39D81"/>
<path transform="translate(926,1177)" d="m0 0 2 1-9 5-15 8-12 2 4-3 17-7z" fill="#F39D81"/>
<path transform="translate(1122,971)" d="m0 0 2 1-1 10h-2v2h-3v2h-2l-1 2-4-2-2-2 7-1 2-5z" fill="#FED829"/>
<path transform="translate(271,1178)" d="m0 0 6 2 14 9v2l5 2 2 2h-6l-5-4v-2l-4-2-11-7z" fill="#F79389"/>
<path transform="translate(844,812)" d="m0 0h3v2l-2 2-7 3-6 3-1 2h-5l5-4zm-20 12 3 1-2 1v3h-5l1-3z" fill="#FED91F"/>
<path transform="translate(1689,783)" d="m0 0 2 1 6 11v13l-4 6h-2l-2 5h-2v2l-2-1 9-12 1-3v-7l-6-13z" fill="#F39D81"/>
<path transform="translate(573,987)" d="m0 0 1 3-12 27-2 3h-2l2-5 7-17z" fill="#FFDF22"/>
<path transform="translate(1160,1193)" d="m0 0h1l-1 7-6 15-4 2v-4l6-10z" fill="#F39E7D"/>
<path transform="translate(616,1157)" d="m0 0 1 3-10 16-2 3h-2v3h-2l-2 5h-2l2-4 9-13z" fill="#F39D81"/>
<path transform="translate(857,922)" d="m0 0 3 1-1 5-2 5-4 2v-3h2l-1-4h-5l5-4z" fill="#F7928A"/>
<path transform="translate(359,835)" d="m0 0 2 3-3 5-5 7-3-1 2-5 5-8z" fill="#FEDC1F"/>
<path transform="translate(827,937)" d="m0 0h2v2l-14 7-12 7-4-1 12-7z" fill="#F39D81"/>
<path transform="translate(1225,805)" d="m0 0 2 3-8 11-5 3 2-5 8-11z" fill="#FEDB21"/>
<path transform="translate(716,816)" d="m0 0 4 2 10 8-3 1-2 3v-2l-3-1z" fill="#FEDA1C"/>
<path transform="translate(350,850)" d="m0 0v3l-1 6h-2v3h-2v2l-5 3 1-4 6-11z" fill="#FEDA20"/>
<path transform="translate(519,789)" d="m0 0 6 5 3 3h-11l-4 2 2-5 3-2z" fill="#FDCF1B"/>
<path transform="translate(1615,897)" d="m0 0v3l-5 5h-2l-2 4h-3l-2 4-6 4-2-1 14-12h2l2-4z" fill="#F39D81"/>
<path transform="translate(1292,687)" d="m0 0h7l3 3v6l-2 5-4 4-2-1 5-9v-5l-7-2z" fill="#F98E8E"/>
<path transform="translate(983,853)" d="m0 0 5 1v2l7 1 5 5h-3-5l-9-8z" fill="#FCCF13"/>
<path transform="translate(763,973)" d="m0 0 2 1-10 7-9 6-4 2-3-1 16-10z" fill="#F39D81"/>
<path transform="translate(293,962)" d="m0 0 1 4-2 4h-3v5l-3 1-1 2 1-5 4-10z" fill="#FED81A"/>
<path transform="translate(261,1171)" d="m0 0h1l1 8 8 7 4 3v2l-4-2-9-6-1-2z" fill="#FEC6C6"/>
<path transform="translate(1425,589)" d="m0 0h12l6 2v2h-9l-1-1-10-1z" fill="#FEDD20"/>
<path transform="translate(641,758)" d="m0 0 5 2 3 3-3 3-1-2-7-1-1-3z" fill="#FEDD24"/>
<path transform="translate(664,1070)" d="m0 0h1v5l-3 4-1 4h-2l-1 4-3 5-2 1 2-5z" fill="#F39D81"/>
<path transform="translate(797,953)" d="m0 0h2v2l-11 6-10 6-3-1 19-11z" fill="#F39D81"/>
<path transform="translate(1197,846)" d="m0 0v3l-2 3-1 6-6 5-2-1 10-15z" fill="#FED929"/>
<path transform="translate(1330,577)" d="m0 0h17l7 1-1 3-11-1v-2h-12z" fill="#FEDC1F"/>
<path transform="translate(542,1047)" d="m0 0 1 3-5 8-8 5 2-4 6-7z" fill="#FEDE21"/>
<path transform="translate(730,827)" d="m0 0 4 2 9 8-1 2-5-2-7-8z" fill="#FED81F"/>
<path transform="translate(1556,782)" d="m0 0 1 3-4 5-6 2v2l-3-1z" fill="#FFDF22"/>
<path transform="translate(260,1035)" d="m0 0h1v10l-6 3 3-9z" fill="#FEDA1D"/>
<path transform="translate(514,794)" d="m0 0v3l-6 9-2 1 1-5 3-6z" fill="#FFDF22"/>
<path transform="translate(598,782)" d="m0 0 2 1-5 4-2 2-5 1-1 2-4-1 13-8z" fill="#FEDA1C"/>
<path transform="translate(897,782)" d="m0 0 7 3 1 3-10-1v-3z" fill="#FEDB1E"/>
<path transform="translate(1177,878)" d="m0 0 2 2-5 9-3-1 2-5z" fill="#FEDC24"/>
<path transform="translate(1447,785)" d="m0 0 9 5 2 4-2 2-9-9z" fill="#FDC9C9"/>
<path transform="translate(1209,829)" d="m0 0h1v5l-3 3h-2l-2 5h-2l2-5z" fill="#FEDC1F"/>
<path transform="translate(494,1152)" d="m0 0 6 2 7 4 2 4-5-2-10-7z" fill="#FEDA1D"/>
<path transform="translate(520,1078)" d="m0 0h2l-1 6-6 5v-3z" fill="#FEDB24"/>
<path transform="translate(624,766)" d="m0 0v3l-5 4-5 1v2l-3-1 5-4z" fill="#FED82D"/>
<path transform="translate(1218,637)" d="m0 0h1l-1 7-1 8h-3l2-9z" fill="#FEDA1C"/>
<path transform="translate(248,1158)" d="m0 0 9 4 1 3-6-2-4-2z" fill="#FEDA24"/>
<path transform="translate(753,1143)" d="m0 0 6 4 3 3v2l-4-2-5-5z" fill="#FEDC1F"/>
<path transform="translate(829,821)" d="m0 0v3l-3-1zm-5 3 3 1-2 1v3h-5l1-3z" fill="#FED931"/>
</svg>
